<svg class="diagram-root" style="background: white" xmlns="http://www.w3.org/2000/svg" xmlns:xlink="http://www.w3.org/1999/xlink"><style>.diagram-root { font-family: "Helvetica Neue", sans-serif; font-size: 12px; } .t { overflow: visible; } .t-bg { y: 40; fill: white; stroke: #323c46; stroke-width: 2; } .th { fill: white; stroke: #323c46; stroke-width: 2; } .tht { fill: #323c46; font-size: 14px; font-weight: bold; } .tf { fill: #323c46; overflow: visible; } .tf.pk { fill: #323c46; font-weight: bold; } .tf.fk { font-weight: bold; } .ty { fill: #323c46; font-weight: normal; text-anchor: end; } .r { fill: transparent; stroke: #4e4e4e; stroke-width: 1; } .l { stroke: 1; } .i { fill: #a0a0a0; stroke: #a0a0a0; } .i.ix { fill: #a0a0a0; stroke: #000; } .fa { fill: transparent; overflow: visible; } .fa .bg.hover { fill: #f3f3f3; } .c { cy: 12; r: 4; stroke: #424242; fill: #424242; } .hr { fill: transparent; stroke: #323c46; stroke-opacity: 0.035; stroke-width: 13; } .dc { stroke: #fa5a3c; fill: #fa5a3c; } .x { stroke: white; stroke-width: 1; } .hl .th { fill: #323c46; } .hl .tht { fill: white; } .fhl .bg { fill: #efefef; } .fhls .bg {  } .r.hl { stroke: black; } .dim { opacity: 0.25; }</style><g class="drawing-wrapper" transform="translate(223.82, 18) scale(1,1)"><g class="rs"><path d="M 189.39 137 m -1, 0 a 1,1 0 1,0 2,0 a 1,1 0 1,0 -2,0 M 189.39 137 m -0.5, 0 a 0.5,0.5 0 1,0 1,0 a 0.5,0.5 0 1,0 -1,0  M189.39 137 L189.39 137 201.39 137 M 189.39 143 m -1, 0 a 1,1 0 1,0 2,0 a 1,1 0 1,0 -2,0 M 189.39 143 m -0.5, 0 a 0.5,0.5 0 1,0 1,0 a 0.5,0.5 0 1,0 -1,0  M189.39 143 L189.39 143 196.39 137 189.39 131 M 189.39 131 m -1, 0 a 1,1 0 1,0 2,0 a 1,1 0 1,0 -2,0 M 189.39 131 m -0.5, 0 a 0.5,0.5 0 1,0 1,0 a 0.5,0.5 0 1,0 -1,0  M201.39 137 Q 229.86 137, 258.33 111.55 T 315.27 86.09 M 327.27 86.09 m -1, 0 a 1,1 0 1,0 2,0 a 1,1 0 1,0 -2,0 M 327.27 86.09 m -0.5, 0 a 0.5,0.5 0 1,0 1,0 a 0.5,0.5 0 1,0 -1,0  M327.27 86.09 L327.27 86.09 315.27 86.09 M321.27 92.09 L321.27 92.09 321.27 80.09" id="h383039645" class="r"></path><path d="M 30 162 m -1, 0 a 1,1 0 1,0 2,0 a 1,1 0 1,0 -2,0 M 30 162 m -0.5, 0 a 0.5,0.5 0 1,0 1,0 a 0.5,0.5 0 1,0 -1,0  M30 162 L30 162 18 162 M 30 168 m -1, 0 a 1,1 0 1,0 2,0 a 1,1 0 1,0 -2,0 M 30 168 m -0.5, 0 a 0.5,0.5 0 1,0 1,0 a 0.5,0.5 0 1,0 -1,0  M30 168 L30 168 23 162 30 156 M 30 156 m -1, 0 a 1,1 0 1,0 2,0 a 1,1 0 1,0 -2,0 M 30 156 m -0.5, 0 a 0.5,0.5 0 1,0 1,0 a 0.5,0.5 0 1,0 -1,0  M18 162 Q -7.61 162, -33.23 174.19 T -84.46 186.37 M -96.46 186.37 m -1, 0 a 1,1 0 1,0 2,0 a 1,1 0 1,0 -2,0 M -96.46 186.37 m -0.5, 0 a 0.5,0.5 0 1,0 1,0 a 0.5,0.5 0 1,0 -1,0  M-96.46 186.37 L-96.46 186.37 -84.46 186.37 M-90.46 192.37 L-90.46 192.37 -90.46 180.37" id="h2508712332" class="r"></path><path d="M 189.39 187 m -1, 0 a 1,1 0 1,0 2,0 a 1,1 0 1,0 -2,0 M 189.39 187 m -0.5, 0 a 0.5,0.5 0 1,0 1,0 a 0.5,0.5 0 1,0 -1,0  M189.39 187 L189.39 187 201.39 187 M 189.39 193 m -1, 0 a 1,1 0 1,0 2,0 a 1,1 0 1,0 -2,0 M 189.39 193 m -0.5, 0 a 0.5,0.5 0 1,0 1,0 a 0.5,0.5 0 1,0 -1,0  M189.39 193 L189.39 193 196.39 187 189.39 181 M 189.39 181 m -1, 0 a 1,1 0 1,0 2,0 a 1,1 0 1,0 -2,0 M 189.39 181 m -0.5, 0 a 0.5,0.5 0 1,0 1,0 a 0.5,0.5 0 1,0 -1,0  M201.39 187 Q 229.86 187, 258.33 136.55 T 315.27 86.09 M 327.27 86.09 m -1, 0 a 1,1 0 1,0 2,0 a 1,1 0 1,0 -2,0 M 327.27 86.09 m -0.5, 0 a 0.5,0.5 0 1,0 1,0 a 0.5,0.5 0 1,0 -1,0  M327.27 86.09 L327.27 86.09 315.27 86.09 M321.27 92.09 L321.27 92.09 321.27 80.09" id="h416565547" class="r"></path><path d="M 30 212 m -1, 0 a 1,1 0 1,0 2,0 a 1,1 0 1,0 -2,0 M 30 212 m -0.5, 0 a 0.5,0.5 0 1,0 1,0 a 0.5,0.5 0 1,0 -1,0  M30 212 L30 212 18 212 M 30 218 m -1, 0 a 1,1 0 1,0 2,0 a 1,1 0 1,0 -2,0 M 30 218 m -0.5, 0 a 0.5,0.5 0 1,0 1,0 a 0.5,0.5 0 1,0 -1,0  M30 218 L30 218 23 212 30 206 M 30 206 m -1, 0 a 1,1 0 1,0 2,0 a 1,1 0 1,0 -2,0 M 30 206 m -0.5, 0 a 0.5,0.5 0 1,0 1,0 a 0.5,0.5 0 1,0 -1,0  M18 212 Q -7.61 212, -33.23 199.19 T -84.46 186.37 M -96.46 186.37 m -1, 0 a 1,1 0 1,0 2,0 a 1,1 0 1,0 -2,0 M -96.46 186.37 m -0.5, 0 a 0.5,0.5 0 1,0 1,0 a 0.5,0.5 0 1,0 -1,0  M-96.46 186.37 L-96.46 186.37 -84.46 186.37 M-90.46 192.37 L-90.46 192.37 -90.46 180.37" id="h3058758167" class="r"></path><path d="M 189.39 262 m -1, 0 a 1,1 0 1,0 2,0 a 1,1 0 1,0 -2,0 M 189.39 262 m -0.5, 0 a 0.5,0.5 0 1,0 1,0 a 0.5,0.5 0 1,0 -1,0  M189.39 262 L189.39 262 201.39 262 M 189.39 268 m -1, 0 a 1,1 0 1,0 2,0 a 1,1 0 1,0 -2,0 M 189.39 268 m -0.5, 0 a 0.5,0.5 0 1,0 1,0 a 0.5,0.5 0 1,0 -1,0  M189.39 268 L189.39 268 196.39 262 189.39 256 M 189.39 256 m -1, 0 a 1,1 0 1,0 2,0 a 1,1 0 1,0 -2,0 M 189.39 256 m -0.5, 0 a 0.5,0.5 0 1,0 1,0 a 0.5,0.5 0 1,0 -1,0  M201.39 262 Q 230.43 262, 259.47 273.59 T 317.54 285.18 M 329.54 285.18 m -1, 0 a 1,1 0 1,0 2,0 a 1,1 0 1,0 -2,0 M 329.54 285.18 m -0.5, 0 a 0.5,0.5 0 1,0 1,0 a 0.5,0.5 0 1,0 -1,0  M329.54 285.18 L329.54 285.18 317.54 285.18 M323.54 291.18 L323.54 291.18 323.54 279.18" id="h3894425878" class="r"></path><path d="M 467.97 136.09 m -1, 0 a 1,1 0 1,0 2,0 a 1,1 0 1,0 -2,0 M 467.97 136.09 m -0.5, 0 a 0.5,0.5 0 1,0 1,0 a 0.5,0.5 0 1,0 -1,0  M467.97 136.09 L467.97 136.09 479.97 136.09 M 467.97 142.09 m -1, 0 a 1,1 0 1,0 2,0 a 1,1 0 1,0 -2,0 M 467.97 142.09 m -0.5, 0 a 0.5,0.5 0 1,0 1,0 a 0.5,0.5 0 1,0 -1,0  M467.97 142.09 L467.97 142.09 474.97 136.09 467.97 130.09 M 467.97 130.09 m -1, 0 a 1,1 0 1,0 2,0 a 1,1 0 1,0 -2,0 M 467.97 130.09 m -0.5, 0 a 0.5,0.5 0 1,0 1,0 a 0.5,0.5 0 1,0 -1,0  M479.97 136.09 Q 497.78 136.09, 515.58 123.82 T 551.18 111.55 M 563.18 111.55 m -1, 0 a 1,1 0 1,0 2,0 a 1,1 0 1,0 -2,0 M 563.18 111.55 m -0.5, 0 a 0.5,0.5 0 1,0 1,0 a 0.5,0.5 0 1,0 -1,0  M563.18 111.55 L563.18 111.55 551.18 111.55 M557.18 117.55 L557.18 117.55 557.18 105.55" id="h3903044659" class="r"></path></g><g class="hrs"></g><g class="ts"><svg width="159.39" height="300" x="30" y="30" id="h625595039" class="t"><rect height="40" width="159.39" class="th"></rect><text x="13" y="25" class="tht">flow</text><rect height="260" width="159.39" class="t-bg"></rect><text x="13" y="61" class="tf pk">flow_id<tspan x="146.39" class="ty">int</tspan></text><path d="M7,14A2,2 0 0,1 5,12A2,2 0 0,1 7,10A2,2 0 0,1 9,12A2,2 0 0,1 7,14M12.65,10C11.83,7.67 9.61,6 7, 6A6, 6 0 0, 0 1, 12A6, 6 0 0, 0 7, 18C9.61, 18 11.83, 16.33 12.65, 14H17V18H21V14H23V10H12.65Z" class="i pk" transform="translate(113.71617187499999, 48) scale(0.65)"></path><text x="13" y="86" class="tf">identifier<tspan x="146.39" class="ty">string?</tspan></text><path d="M22,18V22H18V19H15V16H12L9.74,13.74C9.19,13.91 8.61,14 8,14A6,6 0 0,1 2,8A6,6 0 0,1 8,2A6,6 0 0,1 14,8C14,8.61 13.91, 9.19 13.74, 9.74L22, 18M7, 5A2, 2 0 0, 0 5, 7A2, 2 0 0, 0 7, 9A2, 2 0 0, 0 9, 7A2, 2 0 0, 0 7, 5Z" class="i uq" transform="translate(94.37242187499999, 75.5) scale(0.5)"></path><text x="13" y="111" class="tf fk">source_server<tspan x="146.39" class="ty">string</tspan></text><text x="13" y="136" class="tf fk">source_app<tspan x="146.39" class="ty">string</tspan></text><text x="13" y="161" class="tf fk">target_server<tspan x="146.39" class="ty">string?</tspan></text><text x="13" y="186" class="tf fk">target_app<tspan x="146.39" class="ty">string?</tspan></text><text x="13" y="211" class="tf">file_path<tspan x="146.39" class="ty">string?</tspan></text><text x="13" y="236" class="tf fk">stage<tspan x="146.39" class="ty">int</tspan></text><text x="13" y="261" class="tf">description<tspan x="146.39" class="ty">text?</tspan></text><text x="13" y="286" class="tf">tags<tspan x="146.39" class="ty">string?</tspan></text></svg><svg width="124.04" height="100" x="329.54" y="228.18" id="h3567066164" class="t"><rect height="40" width="124.04" class="th"></rect><text x="13" y="25" class="tht">stage</text><rect height="60" width="124.04" class="t-bg"></rect><text x="13" y="61" class="tf pk">stage_id<tspan x="111.04" class="ty">int</tspan></text><path d="M7,14A2,2 0 0,1 5,12A2,2 0 0,1 7,10A2,2 0 0,1 9,12A2,2 0 0,1 7,14M12.65,10C11.83,7.67 9.61,6 7, 6A6, 6 0 0, 0 1, 12A6, 6 0 0, 0 7, 18C9.61, 18 11.83, 16.33 12.65, 14H17V18H21V14H23V10H12.65Z" class="i pk" transform="translate(78.366171875, 48) scale(0.65)"></path><text x="13" y="86" class="tf">name<tspan x="111.04" class="ty">string</tspan></text></svg><svg width="140.7" height="125" x="327.27" y="29.09" id="h129975016" class="t"><rect height="40" width="140.7" class="th"></rect><text x="13" y="25" class="tht">server</text><rect height="85" width="140.7" class="t-bg"></rect><text x="13" y="61" class="tf pk">identifier<tspan x="127.69999999999999" class="ty">string</tspan></text><path d="M7,14A2,2 0 0,1 5,12A2,2 0 0,1 7,10A2,2 0 0,1 9,12A2,2 0 0,1 7,14M12.65,10C11.83,7.67 9.61,6 7, 6A6, 6 0 0, 0 1, 12A6, 6 0 0, 0 7, 18C9.61, 18 11.83, 16.33 12.65, 14H17V18H21V14H23V10H12.65Z" class="i pk" transform="translate(78.35624999999999, 48) scale(0.65)"></path><text x="13" y="86" class="tf">description<tspan x="127.69999999999999" class="ty">text</tspan></text><text x="13" y="111" class="tf fk">type<tspan x="127.69999999999999" class="ty">int</tspan></text></svg><svg width="157.38" height="100" x="563.18" y="54.55" id="h1627672592" class="t"><rect height="40" width="157.38" class="th"></rect><text x="13" y="25" class="tht">server_type</text><rect height="60" width="157.38" class="t-bg"></rect><text x="13" y="61" class="tf pk">server_type_id<tspan x="144.38" class="ty">int</tspan></text><path d="M7,14A2,2 0 0,1 5,12A2,2 0 0,1 7,10A2,2 0 0,1 9,12A2,2 0 0,1 7,14M12.65,10C11.83,7.67 9.61,6 7, 6A6, 6 0 0, 0 1, 12A6, 6 0 0, 0 7, 18C9.61, 18 11.83, 16.33 12.65, 14H17V18H21V14H23V10H12.65Z" class="i pk" transform="translate(111.706171875, 48) scale(0.65)"></path><text x="13" y="86" class="tf">type<tspan x="144.38" class="ty">string</tspan></text></svg><svg width="105.36" height="125" x="-201.82" y="129.37" id="h211692173" class="t"><rect height="40" width="105.36" class="th"></rect><text x="13" y="25" class="tht">application</text><rect height="85" width="105.36" class="t-bg"></rect><text x="13" y="61" class="tf pk">icto<tspan x="92.36" class="ty">int</tspan></text><path d="M7,14A2,2 0 0,1 5,12A2,2 0 0,1 7,10A2,2 0 0,1 9,12A2,2 0 0,1 7,14M12.65,10C11.83,7.67 9.61,6 7, 6A6, 6 0 0, 0 1, 12A6, 6 0 0, 0 7, 18C9.61, 18 11.83, 16.33 12.65, 14H17V18H21V14H23V10H12.65Z" class="i pk" transform="translate(59.686171875, 48) scale(0.65)"></path><text x="13" y="86" class="tf">name<tspan x="92.36" class="ty">string</tspan></text><text x="13" y="111" class="tf">short<tspan x="92.36" class="ty">string</tspan></text></svg></g></g><text class="qdbd-link" x="10" y="20">www.quickdatabasediagrams.com</text></svg>